<svg width="50" height="50" viewBox="0 0 50 50" fill="none" xmlns="http://www.w3.org/2000/svg">
<path d="M14.6351 10.8846C14.7513 10.7684 14.8435 10.6304 14.9064 10.4786C14.9693 10.3267 15.0017 10.164 15.0017 9.99963C15.0017 9.83527 14.9693 9.67252 14.9064 9.52067C14.8435 9.36882 14.7513 9.23085 14.6351 9.11463C14.5189 8.99841 14.3809 8.90622 14.2291 8.84332C14.0772 8.78042 13.9145 8.74805 13.7501 8.74805C13.5858 8.74805 13.423 8.78042 13.2712 8.84332C13.1193 8.90622 12.9813 8.99841 12.8651 9.11463L8.75011 13.2321L7.13511 11.6146C6.9004 11.3799 6.58205 11.248 6.25011 11.248C5.91817 11.248 5.59983 11.3799 5.36511 11.6146C5.1304 11.8493 4.99854 12.1677 4.99854 12.4996C4.99854 12.664 5.03091 12.8267 5.09381 12.9786C5.1567 13.1304 5.24889 13.2684 5.36511 13.3846L7.86511 15.8846C7.98123 16.001 8.11917 16.0934 8.27103 16.1564C8.42289 16.2194 8.5857 16.2519 8.75011 16.2519C8.91453 16.2519 9.07734 16.2194 9.2292 16.1564C9.38106 16.0934 9.519 16.001 9.63511 15.8846L14.6351 10.8846ZM21.8751 11.2496C21.3778 11.2496 20.9009 11.4472 20.5493 11.7988C20.1977 12.1504 20.0001 12.6273 20.0001 13.1246C20.0001 13.6219 20.1977 14.0988 20.5493 14.4505C20.9009 14.8021 21.3778 14.9996 21.8751 14.9996H43.1251C43.6224 14.9996 44.0993 14.8021 44.4509 14.4505C44.8026 14.0988 45.0001 13.6219 45.0001 13.1246C45.0001 12.6273 44.8026 12.1504 44.4509 11.7988C44.0993 11.4472 43.6224 11.2496 43.1251 11.2496H21.8751ZM21.8751 23.7496C21.3778 23.7496 20.9009 23.9472 20.5493 24.2988C20.1977 24.6504 20.0001 25.1273 20.0001 25.6246C20.0001 26.1219 20.1977 26.5988 20.5493 26.9504C20.9009 27.3021 21.3778 27.4996 21.8751 27.4996H43.1251C43.6224 27.4996 44.0993 27.3021 44.4509 26.9504C44.8026 26.5988 45.0001 26.1219 45.0001 25.6246C45.0001 25.1273 44.8026 24.6504 44.4509 24.2988C44.0993 23.9472 43.6224 23.7496 43.1251 23.7496H21.8751ZM20.0001 38.1246C20.0001 37.6273 20.1977 37.1504 20.5493 36.7988C20.9009 36.4472 21.3778 36.2496 21.8751 36.2496H43.1251C43.6224 36.2496 44.0993 36.4472 44.4509 36.7988C44.8026 37.1504 45.0001 37.6273 45.0001 38.1246C45.0001 38.6219 44.8026 39.0988 44.4509 39.4504C44.0993 39.8021 43.6224 39.9996 43.1251 39.9996H21.8751C21.3778 39.9996 20.9009 39.8021 20.5493 39.4504C20.1977 39.0988 20.0001 38.6219 20.0001 38.1246ZM14.6351 24.6346C14.8698 24.3999 15.0017 24.0816 15.0017 23.7496C15.0017 23.4177 14.8698 23.0993 14.6351 22.8646C14.4004 22.6299 14.0821 22.498 13.7501 22.498C13.4182 22.498 13.0998 22.6299 12.8651 22.8646L8.75011 26.9821L7.13511 25.3646C6.9004 25.1299 6.58205 24.998 6.25011 24.998C5.91817 24.998 5.59983 25.1299 5.36511 25.3646C5.1304 25.5993 4.99854 25.9177 4.99854 26.2496C4.99854 26.5816 5.1304 26.8999 5.36511 27.1346L7.86511 29.6346C7.98123 29.751 8.11917 29.8434 8.27103 29.9064C8.42289 29.9694 8.5857 30.0019 8.75011 30.0019C8.91453 30.0019 9.07734 29.9694 9.2292 29.9064C9.38106 29.8434 9.519 29.751 9.63511 29.6346L14.6351 24.6346ZM14.6351 35.3646C14.7515 35.4807 14.8439 35.6187 14.9069 35.7705C14.9699 35.9224 15.0023 36.0852 15.0023 36.2496C15.0023 36.414 14.9699 36.5768 14.9069 36.7287C14.8439 36.8806 14.7515 37.0185 14.6351 37.1346L9.63511 42.1346C9.519 42.251 9.38106 42.3434 9.2292 42.4064C9.07734 42.4694 8.91453 42.5019 8.75011 42.5019C8.5857 42.5019 8.42289 42.4694 8.27103 42.4064C8.11917 42.3434 7.98123 42.251 7.86511 42.1346L5.36511 39.6346C5.1304 39.3999 4.99854 39.0816 4.99854 38.7496C4.99854 38.4177 5.1304 38.0993 5.36511 37.8646C5.59983 37.6299 5.91817 37.498 6.25011 37.498C6.58205 37.498 6.9004 37.6299 7.13511 37.8646L8.75011 39.4821L12.8651 35.3646C12.9812 35.2482 13.1192 35.1559 13.271 35.0928C13.4229 35.0298 13.5857 34.9974 13.7501 34.9974C13.9145 34.9974 14.0773 35.0298 14.2292 35.0928C14.3811 35.1559 14.519 35.2482 14.6351 35.3646Z" fill="white"/>
</svg>
