<svg width="24" height="21" viewBox="0 0 24 21" fill="none" xmlns="http://www.w3.org/2000/svg">
<path d="M23.5453 6.76883C23.7281 6.60335 24 6.75815 24 7.01973V17.9363C24 19.351 22.9922 20.4987 21.75 20.4987H2.25C1.00781 20.4987 0 19.351 0 17.9363V7.02506C0 6.75815 0.267187 6.60868 0.454687 6.77417C1.50469 7.70301 2.89687 8.88276 7.67812 12.8384C8.66718 13.6604 10.3359 15.39 12 15.3793C13.6734 15.3954 15.375 13.6284 16.3265 12.8384C21.1078 8.88276 22.4953 7.69768 23.5453 6.76883ZM12 13.6658C13.0875 13.6871 14.6531 12.107 15.4406 11.4558C21.6609 6.31508 22.1344 5.86668 23.5687 4.58551C23.8406 4.34529 24 3.97162 24 3.57659V2.56233C24 1.14771 22.9922 0 21.75 0H2.25C1.00781 0 0 1.14771 0 2.56233V3.57659C0 3.97162 0.159375 4.33995 0.43125 4.58551C1.86562 5.86134 2.33906 6.31508 8.55937 11.4558C9.34687 12.107 10.9125 13.6871 12 13.6658Z" fill="#5C87D5"/>
</svg>
