<svg width="50" height="50" viewBox="0 0 50 50" fill="none" xmlns="http://www.w3.org/2000/svg">
<path d="M41.7312 43.3125C42.6895 44.2708 44.1687 42.7917 43.2104 41.8542L35.3979 34.0208C38.1383 30.9886 39.6532 27.0455 39.6479 22.9583C39.6479 13.8125 32.2104 6.375 23.0645 6.375C13.9187 6.375 6.4812 13.8125 6.4812 22.9583C6.4812 32.1042 13.9187 39.5417 23.0645 39.5417C27.1895 39.5417 31.002 38.0208 33.9187 35.5L41.7312 43.3125ZM8.56245 22.9583C8.56245 14.9583 15.0833 8.45833 23.0625 8.45833C31.0624 8.45833 37.5625 14.9583 37.5625 22.9583C37.5625 30.9583 31.0624 37.4583 23.0625 37.4583C15.0833 37.4583 8.56245 30.9583 8.56245 22.9583Z" fill="white"/>
</svg>
