<svg width="19" height="24" viewBox="0 0 19 24" fill="none" xmlns="http://www.w3.org/2000/svg">
<path d="M9.22002 11.9999C12.1301 11.9999 14.4886 9.31398 14.4886 5.99995C14.4886 2.68591 12.1301 0 9.22002 0C6.30995 0 3.95144 2.68591 3.95144 5.99995C3.95144 9.31398 6.30995 11.9999 9.22002 11.9999ZM12.908 13.4999H12.2206C11.3069 13.978 10.2902 14.2499 9.22002 14.2499C8.14984 14.2499 7.13729 13.978 6.2194 13.4999H5.53201C2.47788 13.4999 0 16.3217 0 19.7998V21.7498C0 22.992 0.884958 23.9998 1.97572 23.9998H16.4643C17.5551 23.9998 18.44 22.992 18.44 21.7498V19.7998C18.44 16.3217 15.9622 13.4999 12.908 13.4999Z" fill="#5C87D5"/>
</svg>
