<svg width="50" height="50" viewBox="0 0 50 50" fill="none" xmlns="http://www.w3.org/2000/svg">
<path d="M14.635 10.8846C14.7512 10.7684 14.8434 10.6304 14.9063 10.4786C14.9692 10.3267 15.0016 10.164 15.0016 9.99963C15.0016 9.83527 14.9692 9.67252 14.9063 9.52067C14.8434 9.36882 14.7512 9.23085 14.635 9.11463C14.5188 8.99841 14.3808 8.90622 14.229 8.84332C14.0771 8.78042 13.9144 8.74805 13.75 8.74805C13.5856 8.74805 13.4229 8.78042 13.271 8.84332C13.1192 8.90622 12.9812 8.99841 12.865 9.11463L8.74999 13.2321L7.13499 11.6146C6.90028 11.3799 6.58193 11.248 6.24999 11.248C5.91805 11.248 5.59971 11.3799 5.36499 11.6146C5.13028 11.8493 4.99841 12.1677 4.99841 12.4996C4.99841 12.664 5.03079 12.8267 5.09368 12.9786C5.15658 13.1304 5.24877 13.2684 5.36499 13.3846L7.86499 15.8846C7.98111 16.001 8.11905 16.0934 8.27091 16.1564C8.42277 16.2194 8.58557 16.2519 8.74999 16.2519C8.91441 16.2519 9.07721 16.2194 9.22908 16.1564C9.38094 16.0934 9.51888 16.001 9.63499 15.8846L14.635 10.8846ZM21.875 11.2496C21.3777 11.2496 20.9008 11.4472 20.5492 11.7988C20.1975 12.1504 20 12.6273 20 13.1246C20 13.6219 20.1975 14.0988 20.5492 14.4505C20.9008 14.8021 21.3777 14.9996 21.875 14.9996H43.125C43.6223 14.9996 44.0992 14.8021 44.4508 14.4505C44.8024 14.0988 45 13.6219 45 13.1246C45 12.6273 44.8024 12.1504 44.4508 11.7988C44.0992 11.4472 43.6223 11.2496 43.125 11.2496H21.875ZM21.875 23.7496C21.3777 23.7496 20.9008 23.9472 20.5492 24.2988C20.1975 24.6504 20 25.1273 20 25.6246C20 26.1219 20.1975 26.5988 20.5492 26.9504C20.9008 27.3021 21.3777 27.4996 21.875 27.4996H43.125C43.6223 27.4996 44.0992 27.3021 44.4508 26.9504C44.8024 26.5988 45 26.1219 45 25.6246C45 25.1273 44.8024 24.6504 44.4508 24.2988C44.0992 23.9472 43.6223 23.7496 43.125 23.7496H21.875ZM20 38.1246C20 37.6273 20.1975 37.1504 20.5492 36.7988C20.9008 36.4472 21.3777 36.2496 21.875 36.2496H43.125C43.6223 36.2496 44.0992 36.4472 44.4508 36.7988C44.8024 37.1504 45 37.6273 45 38.1246C45 38.6219 44.8024 39.0988 44.4508 39.4504C44.0992 39.8021 43.6223 39.9996 43.125 39.9996H21.875C21.3777 39.9996 20.9008 39.8021 20.5492 39.4504C20.1975 39.0988 20 38.6219 20 38.1246ZM14.635 24.6346C14.8697 24.3999 15.0016 24.0816 15.0016 23.7496C15.0016 23.4177 14.8697 23.0993 14.635 22.8646C14.4003 22.6299 14.0819 22.498 13.75 22.498C13.4181 22.498 13.0997 22.6299 12.865 22.8646L8.74999 26.9821L7.13499 25.3646C6.90028 25.1299 6.58193 24.998 6.24999 24.998C5.91805 24.998 5.59971 25.1299 5.36499 25.3646C5.13028 25.5993 4.99841 25.9177 4.99841 26.2496C4.99841 26.5816 5.13028 26.8999 5.36499 27.1346L7.86499 29.6346C7.98111 29.751 8.11905 29.8434 8.27091 29.9064C8.42277 29.9694 8.58557 30.0019 8.74999 30.0019C8.91441 30.0019 9.07721 29.9694 9.22908 29.9064C9.38094 29.8434 9.51888 29.751 9.63499 29.6346L14.635 24.6346ZM14.635 35.3646C14.7514 35.4807 14.8438 35.6187 14.9068 35.7705C14.9698 35.9224 15.0022 36.0852 15.0022 36.2496C15.0022 36.414 14.9698 36.5768 14.9068 36.7287C14.8438 36.8806 14.7514 37.0185 14.635 37.1346L9.63499 42.1346C9.51888 42.251 9.38094 42.3434 9.22908 42.4064C9.07721 42.4694 8.91441 42.5019 8.74999 42.5019C8.58557 42.5019 8.42277 42.4694 8.27091 42.4064C8.11905 42.3434 7.98111 42.251 7.86499 42.1346L5.36499 39.6346C5.13028 39.3999 4.99841 39.0816 4.99841 38.7496C4.99841 38.4177 5.13028 38.0993 5.36499 37.8646C5.59971 37.6299 5.91805 37.498 6.24999 37.498C6.58193 37.498 6.90028 37.6299 7.13499 37.8646L8.74999 39.4821L12.865 35.3646C12.9811 35.2482 13.119 35.1559 13.2709 35.0928C13.4228 35.0298 13.5856 34.9974 13.75 34.9974C13.9144 34.9974 14.0772 35.0298 14.2291 35.0928C14.3809 35.1559 14.5189 35.2482 14.635 35.3646Z" fill="#C5E9FF"/>
</svg>
