<svg width="60" height="45" viewBox="0 0 60 45" fill="none" xmlns="http://www.w3.org/2000/svg">
<path d="M54.375 45H5.625C2.51836 45 0 42.4816 0 39.375V5.625C0 2.51836 2.51836 0 5.625 0H54.375C57.4816 0 60 2.51836 60 5.625V39.375C60 42.4816 57.4816 45 54.375 45ZM13.125 6.5625C9.50062 6.5625 6.5625 9.50062 6.5625 13.125C6.5625 16.7494 9.50062 19.6875 13.125 19.6875C16.7494 19.6875 19.6875 16.7494 19.6875 13.125C19.6875 9.50062 16.7494 6.5625 13.125 6.5625ZM7.5 37.5H52.5V24.375L42.2443 14.1193C41.6952 13.5702 40.8048 13.5702 40.2555 14.1193L24.375 30L17.8693 23.4943C17.3202 22.9452 16.4298 22.9452 15.8805 23.4943L7.5 31.875V37.5Z" fill="white"/>
</svg>
