<svg width="39" height="39" viewBox="0 0 39 39" fill="none" xmlns="http://www.w3.org/2000/svg">
<path d="M0 14.625C0 13.3321 0.513615 12.0921 1.42785 11.1779C2.34209 10.2636 3.58207 9.75 4.875 9.75H29.25C30.5429 9.75 31.7829 10.2636 32.6971 11.1779C33.6114 12.0921 34.125 13.3321 34.125 14.625V24.375C34.125 25.6679 33.6114 26.9079 32.6971 27.8221C31.7829 28.7364 30.5429 29.25 29.25 29.25H4.875C3.58207 29.25 2.34209 28.7364 1.42785 27.8221C0.513615 26.9079 0 25.6679 0 24.375V14.625ZM4.875 12.1875C4.22853 12.1875 3.60855 12.4443 3.15143 12.9014C2.69431 13.3585 2.4375 13.9785 2.4375 14.625V24.375C2.4375 25.0215 2.69431 25.6415 3.15143 26.0986C3.60855 26.5557 4.22853 26.8125 4.875 26.8125H29.25C29.8965 26.8125 30.5165 26.5557 30.9736 26.0986C31.4307 25.6415 31.6875 25.0215 31.6875 24.375V14.625C31.6875 13.9785 31.4307 13.3585 30.9736 12.9014C30.5165 12.4443 29.8965 12.1875 29.25 12.1875H4.875ZM39 19.5C39 20.4697 38.6148 21.3997 37.9291 22.0854C37.2434 22.771 36.3134 23.1562 35.3438 23.1562V15.8438C36.3134 15.8438 37.2434 16.229 37.9291 16.9146C38.6148 17.6003 39 18.5303 39 19.5Z" fill="white"/>
</svg>
