<svg width="24" height="27" viewBox="0 0 24 27" fill="none" xmlns="http://www.w3.org/2000/svg">
<path d="M23.0329 19.0793L17.8465 16.548C17.6249 16.4405 17.3787 16.4178 17.1448 16.4834C16.911 16.5491 16.7022 16.6994 16.5498 16.9119L14.253 20.1077C10.6483 18.1721 7.74734 14.8685 6.04776 10.7634L8.854 8.14772C9.04093 7.97458 9.17324 7.73679 9.23089 7.47036C9.28855 7.20392 9.2684 6.92335 9.17352 6.67112L6.95076 0.764717C6.84662 0.492816 6.66243 0.270818 6.42996 0.137003C6.19749 0.00318795 5.9313 -0.034057 5.6773 0.0316906L0.86132 1.29735C0.616431 1.36175 0.397941 1.51877 0.24151 1.7428C0.0850786 1.96682 -5.64123e-05 2.24462 2.80448e-08 2.53084C2.80448e-08 16.0576 9.62733 27.0002 21.4867 27.0002C21.7381 27.0004 21.9821 26.9035 22.1789 26.7253C22.3758 26.5472 22.5137 26.2983 22.5703 26.0193L23.6817 20.5348C23.739 20.2441 23.7056 19.9398 23.5872 19.6741C23.4688 19.4085 23.2728 19.1981 23.0329 19.0793Z" fill="#5C87D5"/>
</svg>
