<svg width="26" height="33" viewBox="0 0 26 33" fill="none" xmlns="http://www.w3.org/2000/svg">
<path d="M22.6385 14.4374H21.2802V9.79683C21.2802 4.39568 17.4204 0 12.6776 0C7.93481 0 4.07494 4.39568 4.07494 9.79683V14.4374H2.71662C1.21682 14.4374 0 15.8232 0 17.5312V29.9061C0 31.6141 1.21682 32.9998 2.71662 32.9998H22.6385C24.1383 32.9998 25.3552 31.6141 25.3552 29.9061V17.5312C25.3552 15.8232 24.1383 14.4374 22.6385 14.4374ZM16.7525 14.4374H8.60264V9.79683C8.60264 7.23805 10.4307 5.15622 12.6776 5.15622C14.9245 5.15622 16.7525 7.23805 16.7525 9.79683V14.4374Z" fill="#5C87D5"/>
</svg>
