<svg width="61" height="54" viewBox="0 0 61 54" fill="none" xmlns="http://www.w3.org/2000/svg">
<path d="M61 13.3438V47.6562C61 50.8135 58.4385 53.375 55.2812 53.375H5.71875C2.56152 53.375 0 50.8135 0 47.6562V13.3438C0 10.1865 2.56152 7.625 5.71875 7.625H16.2031L17.6686 3.70527C18.5025 1.47734 20.6352 0 23.018 0H37.9701C40.3529 0 42.4855 1.47734 43.3195 3.70527L44.7969 7.625H55.2812C58.4385 7.625 61 10.1865 61 13.3438ZM44.7969 30.5C44.7969 22.6129 38.3871 16.2031 30.5 16.2031C22.6129 16.2031 16.2031 22.6129 16.2031 30.5C16.2031 38.3871 22.6129 44.7969 30.5 44.7969C38.3871 44.7969 44.7969 38.3871 44.7969 30.5ZM40.9844 30.5C40.9844 36.2783 36.2783 40.9844 30.5 40.9844C24.7217 40.9844 20.0156 36.2783 20.0156 30.5C20.0156 24.7217 24.7217 20.0156 30.5 20.0156C36.2783 20.0156 40.9844 24.7217 40.9844 30.5Z" fill="white"/>
</svg>
