<svg width="25" height="19" viewBox="0 0 25 19" fill="none" xmlns="http://www.w3.org/2000/svg">
<path d="M24.8012 5.07429C17.8804 -1.69267 7.11677 -1.69019 0.198795 5.07429C-0.0613614 5.32866 -0.0664395 5.75937 0.185123 6.02324L1.52262 7.42602C1.76247 7.67792 2.14841 7.68329 2.39762 7.44171C8.09763 1.92144 16.9015 1.9202 22.6027 7.44171C22.8519 7.68329 23.2379 7.6775 23.4777 7.42602L24.8152 6.02324C25.0664 5.75937 25.0613 5.32866 24.8012 5.07429ZM12.5 13.2143C11.1191 13.2143 9.99997 14.3974 9.99997 15.8572C9.99997 17.3169 11.1191 18.5 12.5 18.5C13.8808 18.5 15 17.3169 15 15.8572C15 14.3974 13.8808 13.2143 12.5 13.2143ZM20.4168 9.76247C15.9144 5.55331 9.08044 5.55785 4.58317 9.76247C4.31364 10.0144 4.30505 10.4517 4.56091 10.7184L5.90622 12.122C6.14059 12.3665 6.51794 12.383 6.76755 12.1551C10.0468 9.15833 14.9605 9.16494 18.232 12.1551C18.4816 12.383 18.859 12.3669 19.0933 12.122L20.4387 10.7184C20.6949 10.4517 20.6859 10.014 20.4168 9.76247Z" fill="black"/>
</svg>
