<svg width="39" height="20" viewBox="0 0 39 20" fill="none" xmlns="http://www.w3.org/2000/svg">
<path d="M0 4.875C0 3.58207 0.513615 2.34209 1.42785 1.42785C2.34209 0.513614 3.58207 0 4.875 0H29.25C30.5429 0 31.7829 0.513614 32.6971 1.42785C33.6114 2.34209 34.125 3.58207 34.125 4.875V14.625C34.125 15.9179 33.6114 17.1579 32.6971 18.0721C31.7829 18.9864 30.5429 19.5 29.25 19.5H4.875C3.58207 19.5 2.34209 18.9864 1.42785 18.0721C0.513615 17.1579 0 15.9179 0 14.625V4.875ZM4.875 2.4375C4.22853 2.4375 3.60855 2.69431 3.15143 3.15143C2.69431 3.60855 2.4375 4.22853 2.4375 4.875V14.625C2.4375 15.2715 2.69431 15.8915 3.15143 16.3486C3.60855 16.8057 4.22853 17.0625 4.875 17.0625H29.25C29.8965 17.0625 30.5165 16.8057 30.9736 16.3486C31.4307 15.8915 31.6875 15.2715 31.6875 14.625V4.875C31.6875 4.22853 31.4307 3.60855 30.9736 3.15143C30.5165 2.69431 29.8965 2.4375 29.25 2.4375H4.875ZM39 9.75C39 10.7197 38.6148 11.6497 37.9291 12.3354C37.2434 13.021 36.3134 13.4062 35.3438 13.4062V6.09375C36.3134 6.09375 37.2434 6.47896 37.9291 7.16464C38.6148 7.85032 39 8.7803 39 9.75Z" fill="black"/>
</svg>
